<svg data-v-423bf9ae="" xmlns="http://www.w3.org/2000/svg" viewBox="0 0 703 90" class="iconLeft"><!----><!----><!----><g data-v-423bf9ae="" id="a80e4e2c-58d8-4863-a4b8-5da9388dd986" fill="black" transform="matrix(5.665722297967836,0,0,5.665722297967836,125.5412027713121,-2.9036846168012573)"><path d="M4.42 13.75L4.42 13.75Q3.23 13.75 2.11 13.45L2.11 13.45L2.11 13.45Q0.99 13.16 0.29 12.67L0.29 12.67L1.20 10.63L1.20 10.63Q1.86 11.06 2.73 11.33L2.73 11.33L2.73 11.33Q3.60 11.59 4.44 11.59L4.44 11.59L4.44 11.59Q6.03 11.59 6.03 10.79L6.03 10.79L6.03 10.79Q6.03 10.37 5.58 10.17L5.58 10.17L5.58 10.17Q5.12 9.97 4.12 9.74L4.12 9.74L4.12 9.74Q3.01 9.51 2.27 9.23L2.27 9.23L2.27 9.23Q1.53 8.96 0.99 8.36L0.99 8.36L0.99 8.36Q0.46 7.76 0.46 6.73L0.46 6.73L0.46 6.73Q0.46 5.84 0.95 5.12L0.95 5.12L0.95 5.12Q1.44 4.40 2.42 3.98L2.42 3.98L2.42 3.98Q3.39 3.56 4.80 3.56L4.80 3.56L4.80 3.56Q5.77 3.56 6.71 3.77L6.71 3.77L6.71 3.77Q7.64 3.99 8.36 4.41L8.36 4.41L7.50 6.47L7.50 6.47Q6.10 5.71 4.79 5.71L4.79 5.71L4.79 5.71Q3.96 5.71 3.58 5.96L3.58 5.96L3.58 5.96Q3.21 6.20 3.21 6.59L3.21 6.59L3.21 6.59Q3.21 6.99 3.65 7.18L3.65 7.18L3.65 7.18Q4.10 7.38 5.10 7.59L5.10 7.59L5.10 7.59Q6.22 7.83 6.95 8.10L6.95 8.10L6.95 8.10Q7.69 8.37 8.22 8.97L8.22 8.97L8.22 8.97Q8.76 9.56 8.76 10.58L8.76 10.58L8.76 10.58Q8.76 11.47 8.27 12.18L8.27 12.18L8.27 12.18Q7.78 12.89 6.80 13.32L6.80 13.32L6.80 13.32Q5.82 13.75 4.42 13.75L4.42 13.75ZM14.85 5.84L14.85 5.84Q16.27 5.84 17.13 6.68L17.13 6.68L17.13 6.68Q17.99 7.52 17.99 9.21L17.99 9.21L17.99 13.55L15.33 13.55L15.33 9.65L15.33 9.65Q15.33 8.09 14.08 8.09L14.08 8.09L14.08 8.09Q13.40 8.09 12.98 8.54L12.98 8.54L12.98 8.54Q12.57 8.99 12.57 9.88L12.57 9.88L12.57 13.55L9.91 13.55L9.91 3.16L12.57 3.16L12.57 6.66L12.57 6.66Q13.01 6.26 13.59 6.05L13.59 6.05L13.59 6.05Q14.18 5.84 14.85 5.84L14.85 5.84ZM23.46 13.68L23.46 13.68Q22.25 13.68 21.27 13.17L21.27 13.17L21.27 13.17Q20.29 12.67 19.73 11.77L19.73 11.77L19.73 11.77Q19.18 10.88 19.18 9.74L19.18 9.74L19.18 9.74Q19.18 8.62 19.73 7.73L19.73 7.73L19.73 7.73Q20.29 6.83 21.26 6.33L21.26 6.33L21.26 6.33Q22.23 5.84 23.46 5.84L23.46 5.84L23.46 5.84Q24.70 5.84 25.68 6.33L25.68 6.33L25.68 6.33Q26.66 6.83 27.20 7.72L27.20 7.72L27.20 7.72Q27.75 8.61 27.75 9.74L27.75 9.74L27.75 9.74Q27.75 10.88 27.20 11.77L27.20 11.77L27.20 11.77Q26.66 12.67 25.68 13.17L25.68 13.17L25.68 13.17Q24.70 13.68 23.46 13.68L23.46 13.68ZM23.46 11.56L23.46 11.56Q24.16 11.56 24.61 11.08L24.61 11.08L24.61 11.08Q25.06 10.60 25.06 9.74L25.06 9.74L25.06 9.74Q25.06 8.90 24.61 8.43L24.61 8.43L24.61 8.43Q24.16 7.95 23.46 7.95L23.46 7.95L23.46 7.95Q22.76 7.95 22.32 8.43L22.32 8.43L22.32 8.43Q21.87 8.90 21.87 9.74L21.87 9.74L21.87 9.74Q21.87 10.60 22.32 11.08L22.32 11.08L22.32 11.08Q22.76 11.56 23.46 11.56L23.46 11.56ZM32.79 13.68L32.79 13.68Q31.57 13.68 30.59 13.17L30.59 13.17L30.59 13.17Q29.61 12.67 29.06 11.77L29.06 11.77L29.06 11.77Q28.50 10.88 28.50 9.74L28.50 9.74L28.50 9.74Q28.50 8.62 29.06 7.73L29.06 7.73L29.06 7.73Q29.61 6.83 30.58 6.33L30.58 6.33L30.58 6.33Q31.56 5.84 32.79 5.84L32.79 5.84L32.79 5.84Q34.02 5.84 35 6.33L35 6.33L35 6.33Q35.98 6.83 36.53 7.72L36.53 7.72L36.53 7.72Q37.07 8.61 37.07 9.74L37.07 9.74L37.07 9.74Q37.07 10.88 36.53 11.77L36.53 11.77L36.53 11.77Q35.98 12.67 35 13.17L35 13.17L35 13.17Q34.02 13.68 32.79 13.68L32.79 13.68ZM32.79 11.56L32.79 11.56Q33.49 11.56 33.94 11.08L33.94 11.08L33.94 11.08Q34.38 10.60 34.38 9.74L34.38 9.74L34.38 9.74Q34.38 8.90 33.94 8.43L33.94 8.43L33.94 8.43Q33.49 7.95 32.79 7.95L32.79 7.95L32.79 7.95Q32.09 7.95 31.64 8.43L31.64 8.43L31.64 8.43Q31.19 8.90 31.19 9.74L31.19 9.74L31.19 9.74Q31.19 10.60 31.64 11.08L31.64 11.08L31.64 11.08Q32.09 11.56 32.79 11.56L32.79 11.56ZM42.88 11.38L43.54 13.24L43.54 13.24Q43.20 13.45 42.72 13.57L42.72 13.57L42.72 13.57Q42.24 13.68 41.69 13.68L41.69 13.68L41.69 13.68Q40.21 13.68 39.41 12.95L39.41 12.95L39.41 12.95Q38.61 12.22 38.61 10.78L38.61 10.78L38.61 8.23L37.51 8.23L37.51 6.24L38.61 6.24L38.61 4.27L41.27 4.27L41.27 6.24L43.01 6.24L43.01 8.23L41.27 8.23L41.27 10.75L41.27 10.75Q41.27 11.16 41.49 11.39L41.49 11.39L41.49 11.39Q41.71 11.62 42.07 11.62L42.07 11.62L42.07 11.62Q42.53 11.62 42.88 11.38L42.88 11.38ZM50.75 13.55L48.97 10.95L47.46 10.95L47.46 13.55L44.69 13.55L44.69 3.75L49.17 3.75L49.17 3.75Q50.50 3.75 51.48 4.19L51.48 4.19L51.48 4.19Q52.46 4.63 52.99 5.45L52.99 5.45L52.99 5.45Q53.52 6.27 53.52 7.38L53.52 7.38L53.52 7.38Q53.52 8.44 53.02 9.23L53.02 9.23L53.02 9.23Q52.53 10.02 51.60 10.47L51.60 10.47L53.72 13.55L50.75 13.55ZM50.72 7.38L50.72 7.38Q50.72 6.69 50.29 6.31L50.29 6.31L50.29 6.31Q49.85 5.94 49 5.94L49 5.94L47.46 5.94L47.46 8.81L49 8.81L49 8.81Q49.85 8.81 50.29 8.43L50.29 8.43L50.29 8.43Q50.72 8.06 50.72 7.38L50.72 7.38ZM62.68 9.77L62.68 9.77Q62.68 9.80 62.64 10.43L62.64 10.43L57.12 10.43L57.12 10.43Q57.29 11.02 57.77 11.33L57.77 11.33L57.77 11.33Q58.25 11.65 58.98 11.65L58.98 11.65L58.98 11.65Q59.53 11.65 59.93 11.49L59.93 11.49L59.93 11.49Q60.33 11.34 60.73 10.99L60.73 10.99L62.13 12.45L62.13 12.45Q61.03 13.68 58.90 13.68L58.90 13.68L58.90 13.68Q57.57 13.68 56.56 13.17L56.56 13.17L56.56 13.17Q55.55 12.67 55.00 11.77L55.00 11.77L55.00 11.77Q54.45 10.88 54.45 9.74L54.45 9.74L54.45 9.74Q54.45 8.62 54.98 7.73L54.98 7.73L54.98 7.73Q55.52 6.85 56.48 6.34L56.48 6.34L56.48 6.34Q57.43 5.84 58.62 5.84L58.62 5.84L58.62 5.84Q59.75 5.84 60.68 6.31L60.68 6.31L60.68 6.31Q61.60 6.78 62.14 7.66L62.14 7.66L62.14 7.66Q62.68 8.55 62.68 9.77L62.68 9.77ZM58.63 7.73L58.63 7.73Q58.02 7.73 57.60 8.08L57.60 8.08L57.60 8.08Q57.19 8.43 57.08 9.03L57.08 9.03L60.19 9.03L60.19 9.03Q60.07 8.43 59.66 8.08L59.66 8.08L59.66 8.08Q59.25 7.73 58.63 7.73L58.63 7.73ZM73.79 5.84L73.79 5.84Q75.19 5.84 76.03 6.68L76.03 6.68L76.03 6.68Q76.86 7.52 76.86 9.21L76.86 9.21L76.86 13.55L74.20 13.55L74.20 9.65L74.20 9.65Q74.20 8.85 73.90 8.47L73.90 8.47L73.90 8.47Q73.60 8.09 73.05 8.09L73.05 8.09L73.05 8.09Q72.45 8.09 72.09 8.51L72.09 8.51L72.09 8.51Q71.72 8.93 71.72 9.79L71.72 9.79L71.72 13.55L69.06 13.55L69.06 9.65L69.06 9.65Q69.06 8.09 67.91 8.09L67.91 8.09L67.91 8.09Q67.30 8.09 66.93 8.51L66.93 8.51L66.93 8.51Q66.57 8.93 66.57 9.79L66.57 9.79L66.57 13.55L63.91 13.55L63.91 5.96L66.44 5.96L66.44 6.76L66.44 6.76Q66.86 6.30 67.44 6.07L67.44 6.07L67.44 6.07Q68.03 5.84 68.71 5.84L68.71 5.84L68.71 5.84Q69.51 5.84 70.14 6.13L70.14 6.13L70.14 6.13Q70.77 6.43 71.16 7.03L71.16 7.03L71.16 7.03Q71.61 6.45 72.30 6.15L72.30 6.15L72.30 6.15Q72.98 5.84 73.79 5.84L73.79 5.84ZM82.35 13.68L82.35 13.68Q81.13 13.68 80.15 13.17L80.15 13.17L80.15 13.17Q79.17 12.67 78.62 11.77L78.62 11.77L78.62 11.77Q78.06 10.88 78.06 9.74L78.06 9.74L78.06 9.74Q78.06 8.62 78.62 7.73L78.62 7.73L78.62 7.73Q79.17 6.83 80.14 6.33L80.14 6.33L80.14 6.33Q81.12 5.84 82.35 5.84L82.35 5.84L82.35 5.84Q83.58 5.84 84.56 6.33L84.56 6.33L84.56 6.33Q85.54 6.83 86.09 7.72L86.09 7.72L86.09 7.72Q86.63 8.61 86.63 9.74L86.63 9.74L86.63 9.74Q86.63 10.88 86.09 11.77L86.09 11.77L86.09 11.77Q85.54 12.67 84.56 13.17L84.56 13.17L84.56 13.17Q83.58 13.68 82.35 13.68L82.35 13.68ZM82.35 11.56L82.35 11.56Q83.05 11.56 83.50 11.08L83.50 11.08L83.50 11.08Q83.94 10.60 83.94 9.74L83.94 9.74L83.94 9.74Q83.94 8.90 83.50 8.43L83.50 8.43L83.50 8.43Q83.05 7.95 82.35 7.95L82.35 7.95L82.35 7.95Q81.65 7.95 81.20 8.43L81.20 8.43L81.20 8.43Q80.75 8.90 80.75 9.74L80.75 9.74L80.75 9.74Q80.75 10.60 81.20 11.08L81.20 11.08L81.20 11.08Q81.65 11.56 82.35 11.56L82.35 11.56ZM92.44 11.38L93.10 13.24L93.10 13.24Q92.76 13.45 92.28 13.57L92.28 13.57L92.28 13.57Q91.80 13.68 91.25 13.68L91.25 13.68L91.25 13.68Q89.77 13.68 88.97 12.95L88.97 12.95L88.97 12.95Q88.17 12.22 88.17 10.78L88.17 10.78L88.17 8.23L87.07 8.23L87.07 6.24L88.17 6.24L88.17 4.27L90.83 4.27L90.83 6.24L92.57 6.24L92.57 8.23L90.83 8.23L90.83 10.75L90.83 10.75Q90.83 11.16 91.05 11.39L91.05 11.39L91.05 11.39Q91.27 11.62 91.63 11.62L91.63 11.62L91.63 11.62Q92.09 11.62 92.44 11.38L92.44 11.38ZM101.88 9.77L101.88 9.77Q101.88 9.80 101.84 10.43L101.84 10.43L96.32 10.43L96.32 10.43Q96.49 11.02 96.97 11.33L96.97 11.33L96.97 11.33Q97.45 11.65 98.18 11.65L98.18 11.65L98.18 11.65Q98.73 11.65 99.13 11.49L99.13 11.49L99.13 11.49Q99.53 11.34 99.93 10.99L99.93 10.99L101.33 12.45L101.33 12.45Q100.23 13.68 98.10 13.68L98.10 13.68L98.10 13.68Q96.77 13.68 95.76 13.17L95.76 13.17L95.76 13.17Q94.75 12.67 94.20 11.77L94.20 11.77L94.20 11.77Q93.65 10.88 93.65 9.74L93.65 9.74L93.65 9.74Q93.65 8.62 94.18 7.73L94.18 7.73L94.18 7.73Q94.72 6.85 95.68 6.34L95.68 6.34L95.68 6.34Q96.63 5.84 97.82 5.84L97.82 5.84L97.82 5.84Q98.95 5.84 99.88 6.31L99.88 6.31L99.88 6.31Q100.80 6.78 101.34 7.66L101.34 7.66L101.34 7.66Q101.88 8.55 101.88 9.77L101.88 9.77ZM97.83 7.73L97.83 7.73Q97.22 7.73 96.80 8.08L96.80 8.08L96.80 8.08Q96.39 8.43 96.28 9.03L96.28 9.03L99.39 9.03L99.39 9.03Q99.27 8.43 98.86 8.08L98.86 8.08L98.86 8.08Q98.45 7.73 97.83 7.73L97.83 7.73Z"></path></g><!----><g data-v-423bf9ae="" id="89a744d0-c47a-40d7-8cd4-6d33d7f8dbd0" transform="matrix(1.2157890310526844,0,0,1.2157890310526844,-6.869602207020776,-14.80245224670793)" stroke="none" fill="black"><path d="M92.971 39.866a4.958 4.958 0 0 0-4.735.088l-12.992 7.482V30.388h-9.833l-9.428-15.391c-.55-.74-1.313-1.293-2.181-1.637l-.046-.018a4.828 4.828 0 0 0-.821-.244c-.184-.039-.37-.051-.559-.067-.122-.009-.239-.044-.364-.044H10.89c-2.746 0-4.97 2.225-4.97 4.971s2.225 4.971 4.97 4.971h38.966l1.497 7.459H5.92v56.625h69.324V66.954l12.992 7.484c.751.43 1.593.648 2.449.648.786 0 1.581-.186 2.286-.562 1.479-.777 1.479-33.878 0-34.658zM57.354 66.142H23.81V45.296h33.543v20.846z"></path></g><!----></svg>