<svg data-v-fde0c5aa="" xmlns="http://www.w3.org/2000/svg" viewBox="0 0 300 300" class="icon"><!----><defs data-v-fde0c5aa=""><linearGradient data-v-fde0c5aa="" gradientTransform="rotate(25)" id="c00e105f-a08a-4204-a23f-e776142af077" x1="0%" y1="0%" x2="100%" y2="0%"><stop data-v-fde0c5aa="" offset="0%" stop-color="#51A4FB" stop-opacity="1"></stop><stop data-v-fde0c5aa="" offset="100%" stop-color="#51A4FB" stop-opacity="1"></stop></linearGradient></defs><rect data-v-fde0c5aa="" fill="url(#c00e105f-a08a-4204-a23f-e776142af077)" x="0" y="0" width="300px" height="300px" class="logo-background-square"></rect><!----><defs data-v-fde0c5aa=""><!----></defs><g data-v-fde0c5aa="" id="c9ea5cc0-5ace-4436-8de6-a0288a4505e4" fill="#ffffff" stroke="none" transform="matrix(2.495455780617446,0,0,2.495455780617446,25.226901588356554,25.22720858927562)"><path d="M92.971 39.866a4.958 4.958 0 0 0-4.735.088l-12.992 7.482V30.388h-9.833l-9.428-15.391c-.55-.74-1.313-1.293-2.181-1.637l-.046-.018a4.828 4.828 0 0 0-.821-.244c-.184-.039-.37-.051-.559-.067-.122-.009-.239-.044-.364-.044H10.89c-2.746 0-4.97 2.225-4.97 4.971s2.225 4.971 4.97 4.971h38.966l1.497 7.459H5.92v56.625h69.324V66.954l12.992 7.484c.751.43 1.593.648 2.449.648.786 0 1.581-.186 2.286-.562 1.479-.777 1.479-33.878 0-34.658zM57.354 66.142H23.81V45.296h33.543v20.846z"></path></g><!----></svg>