<svg data-v-423bf9ae="" xmlns="http://www.w3.org/2000/svg" viewBox="0 0 71.45617483563399 60" class="icon"><!----><!----><!----><!----><g data-v-423bf9ae="" id="807b853c-13e9-4bc7-bfa1-e30599c74d49" transform="matrix(0.8105260207017897,0,0,0.8105260207017897,-4.798314096977883,-10.526300854393014)" stroke="none" fill="white"><path d="M92.971 39.866a4.958 4.958 0 0 0-4.735.088l-12.992 7.482V30.388h-9.833l-9.428-15.391c-.55-.74-1.313-1.293-2.181-1.637l-.046-.018a4.828 4.828 0 0 0-.821-.244c-.184-.039-.37-.051-.559-.067-.122-.009-.239-.044-.364-.044H10.89c-2.746 0-4.97 2.225-4.97 4.971s2.225 4.971 4.97 4.971h38.966l1.497 7.459H5.92v56.625h69.324V66.954l12.992 7.484c.751.43 1.593.648 2.449.648.786 0 1.581-.186 2.286-.562 1.479-.777 1.479-33.878 0-34.658zM57.354 66.142H23.81V45.296h33.543v20.846z"></path></g><!----></svg>